<?xml version="1.0" encoding="UTF-8" standalone="no" ?>
<!DOCTYPE svg PUBLIC "-//W3C//DTD SVG 1.1//EN" "http://www.w3.org/Graphics/SVG/1.1/DTD/svg11.dtd">
<svg xmlns="http://www.w3.org/2000/svg" xmlns:xlink="http://www.w3.org/1999/xlink" version="1.1" width="180" height="200" viewBox="0 0 180 200" xml:space="preserve">
<desc>Created with Fabric.js 5.2.4</desc>
<defs>
</defs>
<rect x="0" y="0" width="100%" height="100%" fill="transparent"></rect>
<g transform="matrix(1 0 0 1 90 100)" id="bce887f8-07ca-419c-8214-d75964a8f182"  >
<rect style="stroke: none; stroke-width: 1; stroke-dasharray: none; stroke-linecap: butt; stroke-dashoffset: 0; stroke-linejoin: miter; stroke-miterlimit: 4; fill: rgb(255,255,255); fill-rule: nonzero; opacity: 1; visibility: hidden;" vector-effect="non-scaling-stroke"  x="-90" y="-100" rx="0" ry="0" width="180" height="200" />
</g>
<g transform="matrix(Infinity NaN NaN Infinity 0 0)" id="86841c39-a7dd-47b0-b33f-fe824e25d116"  >
</g>
<g transform="matrix(0.53 0 0 0.55 90 100)"  >
<g style="" vector-effect="non-scaling-stroke"   >
		<g transform="matrix(1.33 0 0 1.33 36.47 -74.13)"  >
<path style="stroke: none; stroke-width: 1; stroke-dasharray: none; stroke-linecap: butt; stroke-dashoffset: 0; stroke-linejoin: miter; stroke-miterlimit: 4; fill: rgb(0,0,0); fill-rule: nonzero; opacity: 1;" vector-effect="non-scaling-stroke"  transform=" translate(-77.35, -32.06)" d="M 92.5285187 14.8961754 L 72.3354797 31.022337 C 72.3354797 31.022337 63.47193909999999 37.6032601 62.1721611 49.2230072 L 75.8335342 38.3974304 C 83.5177078 32.3083496 89.3086014 24.1565723 92.5285187 14.8961754 z" stroke-linecap="round" />
</g>
		<g transform="matrix(1.33 0 0 1.33 -36.47 -74.13)"  >
<path style="stroke: none; stroke-width: 1; stroke-dasharray: none; stroke-linecap: butt; stroke-dashoffset: 0; stroke-linejoin: miter; stroke-miterlimit: 4; fill: rgb(0,0,0); fill-rule: nonzero; opacity: 1;" vector-effect="non-scaling-stroke"  transform=" translate(-22.65, -32.06)" d="M 24.1664658 38.3974304 L 37.8278389 49.2230072 C 36.5280609 37.60326 27.6645184 31.022337 27.6645184 31.022337 L 7.4714789 14.8961754 C 10.6913815 24.1565723 16.4822922 32.3083496 24.1664658 38.3974304 z" stroke-linecap="round" />
</g>
		<g transform="matrix(1.33 0 0 1.33 0 -19.08)"  >
<path style="stroke: none; stroke-width: 1; stroke-dasharray: none; stroke-linecap: butt; stroke-dashoffset: 0; stroke-linejoin: miter; stroke-miterlimit: 4; fill: rgb(0,0,0); fill-rule: nonzero; opacity: 1;" vector-effect="non-scaling-stroke"  transform=" translate(-50, -73.34)" d="M 50 75.8168182 C 46.8706932 72.7964325 44.0221443 71.4788208 44.0221443 71.4788208 L 21.8298531 60.308197 C 26.6941815 68.383049 33.7536774 74.9087524 42.185257 79.1245727 L 45.846016 80.9549636 C 44.8676072 82.53701769999999 43.9902611 84.33673089999999 43.3178025 86.3730392 L 50 83.0319214 L 56.6821976 86.3730393 C 56.009739 84.336731 55.1323929 82.5370179 54.1539841 80.95496370000001 L 57.8147431 79.12457280000001 C 66.2463456 74.9087525 73.30581670000001 68.38304910000001 78.1701661 60.308197100000015 L 55.9778557 71.4788208 C 55.9778557 71.4788208 53.1293068 72.7964325 50 75.8168182 z" stroke-linecap="round" />
</g>
		<g transform="matrix(1.33 0 0 1.33 32.12 -48.68)"  >
<path style="stroke: none; stroke-width: 1; stroke-dasharray: none; stroke-linecap: butt; stroke-dashoffset: 0; stroke-linejoin: miter; stroke-miterlimit: 4; fill: rgb(0,0,0); fill-rule: nonzero; opacity: 1;" vector-effect="non-scaling-stroke"  transform=" translate(-74.09, -51.15)" d="M 67.685173 49.3397369 C 67.685173 49.3397369 56.39348220000001 55.96315 53.18470000000001 70.2307357 L 71.0340347 59.005619 C 81.4154358 52.476963 89.7270813 43.1317787 95 32.0595551 L 67.685173 49.3397369 z" stroke-linecap="round" />
</g>
		<g transform="matrix(1.33 0 0 1.33 -32.12 -48.68)"  >
<path style="stroke: none; stroke-width: 1; stroke-dasharray: none; stroke-linecap: butt; stroke-dashoffset: 0; stroke-linejoin: miter; stroke-miterlimit: 4; fill: rgb(0,0,0); fill-rule: nonzero; opacity: 1;" vector-effect="non-scaling-stroke"  transform=" translate(-25.91, -51.15)" d="M 46.8153 70.2307358 C 43.6065178 55.96315 32.3148117 49.3397369 32.3148117 49.3397369 L 5 32.0595551 C 10.2728977 43.1317788 18.584564200000003 52.47696309999999 28.9659481 59.0056191 L 46.8153 70.2307358 z" stroke-linecap="round" />
</g>
		<g transform="matrix(4.82 0 0 4.82 0 65.5)"  >
<path style="stroke: none; stroke-width: 1; stroke-dasharray: none; stroke-linecap: butt; stroke-dashoffset: 0; stroke-linejoin: miter; stroke-miterlimit: 4; fill: rgb(0,0,0); fill-rule: nonzero; opacity: 1;" vector-effect="non-scaling-stroke"  transform=" translate(-31.63, -13.7)" d="M 12.6 9.56 L 7.9399999999999995 20 L 5.16 20 L 0.5 9.56 L 3.64 9.56 L 6.5600000000000005 16.240000000000002 L 9.46 9.560000000000002 L 12.600000000000001 9.560000000000002 z M 18.28 12.879999999999999 C 18 12.159999999999998 17.580000000000002 11.919999999999998 17.12 11.919999999999998 C 16.7 11.919999999999998 16.28 12.159999999999998 16.28 12.559999999999999 C 16.28 12.94 16.52 13.159999999999998 16.98 13.319999999999999 L 18.3 13.78 C 19.78 14.32 21.28 14.86 21.28 16.939999999999998 C 21.28 19.04 19.18 20.24 17.020000000000003 20.24 C 15.080000000000004 20.24 13.260000000000003 19.099999999999998 12.820000000000004 17.279999999999998 L 15.300000000000004 16.499999999999996 C 15.560000000000004 17.079999999999995 16.020000000000003 17.739999999999995 17.020000000000003 17.739999999999995 C 17.700000000000003 17.739999999999995 18.140000000000004 17.299999999999994 18.140000000000004 16.899999999999995 C 18.140000000000004 16.699999999999996 17.980000000000004 16.439999999999994 17.480000000000004 16.239999999999995 L 16.260000000000005 15.799999999999995 C 14.180000000000005 15.039999999999996 13.200000000000005 13.979999999999995 13.200000000000005 12.499999999999996 C 13.200000000000005 10.559999999999997 15.000000000000005 9.419999999999996 16.980000000000004 9.419999999999996 C 19.000000000000004 9.419999999999996 20.340000000000003 10.519999999999996 20.940000000000005 12.179999999999996 z M 27.96 17.36 C 28.52 17.36 28.92 17.28 29.36 17.16 L 29.36 19.78 C 28.919999999999998 19.98 28.2 20.12 27.14 20.12 C 25.400000000000002 20.12 23.94 19.540000000000003 23.94 16.34 L 23.94 12.2 L 22.48 12.2 L 22.48 9.6 L 23.94 9.6 L 23.94 7.16 L 27.1 7.16 L 27.1 9.6 L 29.32 9.6 L 29.32 12.2 L 27.1 12.2 L 27.1 16.34 C 27.1 16.8 27.220000000000002 17.36 27.96 17.36 z M 36.2 9.42 C 38.56 9.42 41.68000000000001 11.2 41.68000000000001 14.84 C 41.68000000000001 18.5 38.56000000000001 20.2 36.2 20.2 C 33.839999999999996 20.2 30.720000000000002 18.5 30.720000000000002 14.84 C 30.720000000000002 11.2 33.84 9.42 36.2 9.42 z M 36.2 12.2 C 35 12.2 33.78 13.12 33.78 14.84 C 33.78 16.5 35 17.42 36.2 17.42 C 37.400000000000006 17.42 38.64 16.5 38.64 14.840000000000002 C 38.64 13.120000000000001 37.4 12.200000000000001 36.2 12.200000000000001 z M 50.080000000000005 9.44 C 50.36000000000001 9.44 50.64000000000001 9.44 50.900000000000006 9.5 L 50.900000000000006 12.52 C 50.660000000000004 12.459999999999999 50.38 12.459999999999999 50.18000000000001 12.459999999999999 C 48.260000000000005 12.459999999999999 46.720000000000006 13.84 46.56000000000001 15.759999999999998 L 46.56000000000001 20 L 43.400000000000006 20 L 43.400000000000006 9.6 L 46.56 9.6 L 46.56 12.14 C 47.04 10.58 48.24 9.440000000000001 50.080000000000005 9.440000000000001 z M 57.68 9.42 C 60.04 9.42 63.34 11.2 62.68 15.9 L 55.42 15.9 C 55.78 16.98 56.72 17.54 57.980000000000004 17.54 C 59.260000000000005 17.54 59.660000000000004 17.259999999999998 60.38 16.96 L 62.120000000000005 18.64 C 61.2 19.54 59.96000000000001 20.2 57.86000000000001 20.2 C 55.28000000000001 20.2 52.2 18.419999999999998 52.2 14.84 C 52.2 11.2 55.32 9.42 57.68000000000001 9.42 z M 57.68 12.120000000000001 C 56.78 12.120000000000001 55.86 12.64 55.46 13.680000000000001 L 59.88 13.680000000000001 C 59.56 12.64 58.580000000000005 12.120000000000001 57.68 12.120000000000001 z" stroke-linecap="round" />
</g>
</g>
</g>
</svg>